<svg width="38" height="38" viewBox="0 0 38 38" fill="none" xmlns="http://www.w3.org/2000/svg">
<circle cx="19" cy="19" r="18.5" stroke="#820263"/>
<g clip-path="url(#clip0_0_1)">
<path d="M22.25 26.3129C22.143 26.3135 22.037 26.293 21.938 26.2526C21.839 26.2122 21.749 26.1526 21.6731 26.0773L15.1731 19.5773C15.0969 19.5017 15.0365 19.4119 14.9952 19.3129C14.954 19.2139 14.9327 19.1077 14.9327 19.0004C14.9327 18.8931 14.954 18.7869 14.9952 18.6879C15.0365 18.5889 15.0969 18.4991 15.1731 18.4235L21.6731 11.9235C21.8261 11.7705 22.0336 11.6846 22.25 11.6846C22.4663 11.6846 22.6738 11.7705 22.8268 11.9235C22.9798 12.0765 23.0658 12.284 23.0658 12.5004C23.0658 12.7168 22.9798 12.9243 22.8268 13.0773L16.8956 19.0004L22.8268 24.9235C22.903 24.9991 22.9634 25.0889 23.0047 25.1879C23.0459 25.2869 23.0672 25.3931 23.0672 25.5004C23.0672 25.6077 23.0459 25.7139 23.0047 25.8129C22.9634 25.9119 22.903 26.0017 22.8268 26.0773C22.7509 26.1526 22.6609 26.2122 22.5619 26.2526C22.4629 26.293 22.3569 26.3135 22.25 26.3129Z" fill="#820263"/>
</g>
<defs>
<clipPath id="clip0_0_1">
<rect width="26" height="26" fill="white" transform="translate(6 6)"/>
</clipPath>
</defs>
</svg>
