<?xml version="1.0" encoding="UTF-8"?>
<svg width="700pt" height="700pt" version="1.1" viewBox="0 0 700 700" xmlns="http://www.w3.org/2000/svg">
 <g>
  <path d="m315 122.5c-43.676 0-76.684-0.0625-102.98 2.9062s-47.352 9.2227-62.41 24.301c-15.059 15.078-21.25 36.09-24.199 62.379-2.9531 26.285-2.9062 59.289-2.9062 102.91 0 43.637-0.035156 76.648 2.9727 102.95 3.0117 26.301 9.3438 47.324 24.438 62.379s36.109 21.301 62.379 24.266c26.27 2.9688 59.203 2.9062 102.71 2.9062 43.512 0 76.438 0.019531 102.71-2.9727 26.273-2.9922 47.328-9.2695 62.41-24.336 15.086-15.066 21.359-36.094 24.371-62.379 3.0117-26.285 3.0078-59.25 3.0078-102.81v0.003906c0.066406-4.6875-1.75-9.2031-5.0391-12.535-3.2891-3.3359-7.7773-5.2148-12.461-5.2148s-9.1758 1.8789-12.465 5.2148c-3.2891 3.332-5.1016 7.8477-5.0352 12.535 0 43.527-0.15234 75.992-2.7695 98.848-2.6172 22.855-7.4375 34.688-14.355 41.598-6.918 6.9102-18.746 11.719-41.598 14.32-22.852 2.6055-55.297 2.7344-98.777 2.7344-43.488 0-75.922-0.11719-98.777-2.6992-22.855-2.582-34.691-7.3672-41.598-14.254s-11.738-18.727-14.355-41.598c-2.6172-22.871-2.7695-55.348-2.7695-98.949 0-43.613 0.097656-76.102 2.6641-98.984 2.5703-22.883 7.3633-34.699 14.219-41.562 6.8555-6.8633 18.676-11.672 41.562-14.254 22.887-2.582 55.395-2.6992 99.055-2.6992 4.6836 0.066406 9.1992-1.75 12.535-5.0391 3.3359-3.2891 5.2148-7.7773 5.2148-12.461 0-4.6875-1.8789-9.1758-5.2148-12.465-3.3359-3.2891-7.8516-5.1016-12.535-5.0352z" fill="gray"/>
  <path d="m507.22 52.5c-4.543 0.074219-8.8828 1.9102-12.098 5.1289l-210 210c-3.2812 3.2812-5.125 7.7305-5.1289 12.371v52.5c0 4.6406 1.8438 9.0938 5.1289 12.375 3.2812 3.2812 7.7305 5.125 12.371 5.125h52.5c4.6406 0 9.0938-1.8438 12.375-5.1289l210-210c3.2812-3.2812 5.125-7.7305 5.125-12.371s-1.8438-9.0898-5.125-12.375l-52.5-52.5c-3.3477-3.3477-7.9102-5.1992-12.648-5.125zm0.27344 42.246 27.754 27.754-27.754 27.754-27.754-27.754zm-52.5 52.5 27.754 27.754-140 140h-27.754v-27.754z" fill="gray"/>
 </g>
</svg>
