<svg id="SvgjsSvg1115" width="288" height="288" xmlns="http://www.w3.org/2000/svg" version="1.1" xmlns:xlink="http://www.w3.org/1999/xlink" xmlns:svgjs="http://svgjs.com/svgjs"><defs id="SvgjsDefs1116"></defs><g id="SvgjsG1117"><svg xmlns="http://www.w3.org/2000/svg" viewBox="0 0 512 512" width="288" height="288"><path d="M456.324 117.088H278.428l-51.613-89.265C216.591 10.141 199.014 0 178.589 0H55.676C28.108 0 5.681 22.428 5.681 49.996v323.609c0 27.567 22.428 49.995 49.995 49.995h131.53l-13.593 18.774a8 8 0 0 0 .823 10.348l28.017 28.016a8 8 0 0 0 10.348.823l30.866-22.348a114.558 114.558 0 0 0 20.336 8.434l6.021 37.617a8 8 0 0 0 7.899 6.735h39.622a8 8 0 0 0 7.899-6.735l6.021-37.62a114.622 114.622 0 0 0 20.335-8.432l30.867 22.349a8 8 0 0 0 10.348-.823l28.017-28.016a8 8 0 0 0 .823-10.348L408.264 423.6h48.06c27.568 0 49.996-22.428 49.996-49.995V167.083c0-27.567-22.428-49.995-49.996-49.995zM55.676 16h122.913c14.558 0 27.087 7.229 34.375 19.832l46.983 81.256H21.681V49.996C21.681 31.25 36.931 16 55.676 16zm330.851 448.602-29.489-21.351a7.997 7.997 0 0 0-8.772-.401 98.637 98.637 0 0 1-25.874 10.728 8.002 8.002 0 0 0-5.917 6.486L310.725 496h-25.979l-5.752-35.934a8 8 0 0 0-5.918-6.486 98.561 98.561 0 0 1-25.872-10.73 8 8 0 0 0-8.772.401l-29.488 21.351-18.37-18.37 21.351-29.489a7.999 7.999 0 0 0 .401-8.771 98.682 98.682 0 0 1-10.729-25.874 8.002 8.002 0 0 0-6.486-5.917l-35.936-5.752V344.45l35.937-5.752a8.002 8.002 0 0 0 6.486-5.917 98.613 98.613 0 0 1 10.728-25.873 8 8 0 0 0-.401-8.772l-21.351-29.488 18.37-18.37 29.487 21.35a8.002 8.002 0 0 0 8.772.401 98.603 98.603 0 0 1 25.874-10.729 8 8 0 0 0 5.918-6.486l5.752-35.934h25.979l5.752 35.934a8 8 0 0 0 5.918 6.486 98.564 98.564 0 0 1 25.872 10.729 7.999 7.999 0 0 0 8.772-.401l29.488-21.351 18.37 18.37-21.351 29.489a8 8 0 0 0-.401 8.772 98.668 98.668 0 0 1 10.729 25.874 8.002 8.002 0 0 0 6.486 5.917l35.935 5.752v25.979l-35.934 5.752a8 8 0 0 0-6.486 5.918 98.564 98.564 0 0 1-10.729 25.872 8 8 0 0 0 .401 8.772l21.351 29.489-18.372 18.369zm103.793-90.997c0 18.745-15.25 33.995-33.996 33.995h-54.838a114.41 114.41 0 0 0 6.457-16.429l37.617-6.021a8 8 0 0 0 6.735-7.899v-39.622a8 8 0 0 0-6.735-7.899l-37.619-6.021a114.583 114.583 0 0 0-8.433-20.335l22.349-30.867a8 8 0 0 0-.823-10.348l-28.017-28.017a8 8 0 0 0-10.348-.823l-30.867 22.348a114.466 114.466 0 0 0-20.336-8.434l-6.021-37.617a8 8 0 0 0-7.899-6.735h-39.622a8 8 0 0 0-7.899 6.735l-6.021 37.617a114.485 114.485 0 0 0-20.338 8.434l-30.865-22.348a7.998 7.998 0 0 0-10.348.823l-28.017 28.017a8 8 0 0 0-.823 10.348l22.349 30.867a114.597 114.597 0 0 0-8.432 20.335l-37.62 6.022a8 8 0 0 0-6.735 7.899v39.622a8 8 0 0 0 6.735 7.899l37.62 6.022a114.536 114.536 0 0 0 6.456 16.428H55.676c-18.745 0-33.995-15.25-33.995-33.995V133.088h434.644c18.745 0 33.996 15.25 33.996 33.995v206.522zm-192.585-82.708c-36.691 0-66.542 29.851-66.542 66.542s29.851 66.542 66.542 66.542c36.692 0 66.543-29.851 66.543-66.542s-29.851-66.542-66.543-66.542zm0 117.085c-27.869 0-50.542-22.673-50.542-50.542s22.673-50.542 50.542-50.542c27.87 0 50.543 22.673 50.543 50.542s-22.674 50.542-50.543 50.542z" fill="gray" class="color000 svgShape"></path></svg></g></svg>