<svg id="SvgjsSvg1082" width="288" height="288" xmlns="http://www.w3.org/2000/svg" version="1.1" xmlns:xlink="http://www.w3.org/1999/xlink" xmlns:svgjs="http://svgjs.com/svgjs"><defs id="SvgjsDefs1083"></defs><g id="SvgjsG1084"><svg xmlns="http://www.w3.org/2000/svg" fill-rule="evenodd" stroke-linejoin="round" stroke-miterlimit="2" clip-rule="evenodd" viewBox="0 0 32 32" width="288" height="288"><path d="M10 26a1 1 0 0 0 1-1v-2h10v2a1 1 0 0 0 1 1h7a1 1 0 0 0 1-1v-6a1 1 0 0 0-1-1H3a1 1 0 0 0-1 1v6a1 1 0 0 0 1 1h7Zm-1-2H4v-4h24v4h-5v-2a1 1 0 0 0-1-1H10a1 1 0 0 0-1 1v2Z" fill="#820263" class="color000 svgShape"></path><path d="m9 24.877-.97 3.88A.998.998 0 0 0 9 30h14a.998.998 0 0 0 .97-1.243l-.97-3.88V22a1 1 0 0 0-1-1H10a1 1 0 0 0-1 1v2.877zm1.97.366c.02-.08.03-.161.03-.243v-2h10v2c0 .082.01.163.03.243L21.719 28H10.281l.689-2.757zM26 21h-.929a1.001 1.001 0 0 0 0 2H26a1 1 0 0 0 0-2zM8.883 10.177l.082-.522a1 1 0 0 0-.987-1.162H5.6a2 2 0 0 0-1.966 1.634l-1.617 8.69A.997.997 0 0 0 3 20h26a1 1 0 0 0 .36-1.933l-20.477-7.89zm-1.975.316a2 2 0 0 0 1.256 1.55L23.623 18H4.203L5.6 10.493h1.308z" fill="#820263" class="color000 svgShape"></path><path d="M27.866 9.79a2 2 0 0 0-1.261-1.422l-16.12-5.89a2.002 2.002 0 0 0-2.662 1.568l-.916 5.82a2 2 0 0 0 1.257 2.177l20.476 7.89c.346.133.737.064 1.017-.179.279-.244.401-.622.317-.982L27.866 9.79ZM9.89 4.39l16.029 5.857 1.675 7.14-18.711-7.21.901-5.724.019-.001c.01.014.029.007.047-.009.023-.008.038-.02.03-.037l.01-.016Zm16.029 5.857Z" fill="#820263" class="color000 svgShape"></path></svg></g></svg>