<svg width="19" height="16" viewBox="0 0 19 16" fill="none" xmlns="http://www.w3.org/2000/svg">
<path d="M6 3H18C18.55 3 19 2.55 19 2C19 1.45 18.55 1 18 1H6C5.45 1 5 1.45 5 2C5 2.55 5.45 3 6 3ZM18 13H6C5.45 13 5 13.45 5 14C5 14.55 5.45 15 6 15H18C18.55 15 19 14.55 19 14C19 13.45 18.55 13 18 13ZM18 7H6C5.45 7 5 7.45 5 8C5 8.55 5.45 9 6 9H18C18.55 9 19 8.55 19 8C19 7.45 18.55 7 18 7ZM2.5 12H0.5C0.22 12 0 12.22 0 12.5C0 12.78 0.22 13 0.5 13H2V13.5H1.5C1.22 13.5 1 13.72 1 14C1 14.28 1.22 14.5 1.5 14.5H2V15H0.5C0.22 15 0 15.22 0 15.5C0 15.78 0.22 16 0.5 16H2.5C2.78 16 3 15.78 3 15.5V12.5C3 12.22 2.78 12 2.5 12ZM0.5 1H1V3.5C1 3.78 1.22 4 1.5 4C1.78 4 2 3.78 2 3.5V0.5C2 0.22 1.78 0 1.5 0H0.5C0.22 0 0 0.22 0 0.5C0 0.78 0.22 1 0.5 1ZM2.5 6H0.5C0.22 6 0 6.22 0 6.5C0 6.78 0.22 7 0.5 7H1.8L0.12 8.96C0.0399999 9.05 0 9.17 0 9.28V9.5C0 9.78 0.22 10 0.5 10H2.5C2.78 10 3 9.78 3 9.5C3 9.22 2.78 9 2.5 9H1.2L2.88 7.04C2.96 6.95 3 6.83 3 6.72V6.5C3 6.22 2.78 6 2.5 6Z" fill="#820263"/>
</svg>
