<svg width="18" height="18" viewBox="0 0 18 18" fill="none" xmlns="http://www.w3.org/2000/svg">
<path d="M8.00001 5.75073V9.43073C8.00001 9.78073 8.19001 10.1107 8.49001 10.2907L11.61 12.1407C11.97 12.3507 12.43 12.2307 12.64 11.8807C12.85 11.5207 12.74 11.0607 12.38 10.8507L9.51001 9.14073V5.74073C9.50001 5.34073 9.16001 5.00073 8.75001 5.00073C8.34001 5.00073 8.00001 5.34073 8.00001 5.75073ZM18 6.50073V1.21073C18 0.760731 17.46 0.540731 17.15 0.860731L15.37 2.64073C13.56 0.830731 10.98 -0.209269 8.16001 0.040731C3.97001 0.420731 0.520007 3.79073 0.0600072 7.98073C-0.539993 13.4007 3.69001 18.0007 9.00001 18.0007C13.59 18.0007 17.38 14.5607 17.93 10.1207C18 9.52073 17.53 9.00073 16.93 9.00073C16.43 9.00073 16.01 9.37073 15.95 9.86073C15.52 13.3507 12.51 16.0507 8.90001 16.0007C5.19001 15.9507 2.06001 12.8207 2.00001 9.10073C1.94001 5.20073 5.11001 2.00073 9.00001 2.00073C10.93 2.00073 12.68 2.79073 13.95 4.05073L11.86 6.14073C11.54 6.46073 11.76 7.00073 12.21 7.00073H17.5C17.78 7.00073 18 6.78073 18 6.50073Z" fill="#820263"/>
</svg>
